<svg id="visual" viewBox="0 0 900 200" width="900" height="200" xmlns="http://www.w3.org/2000/svg" xmlns:xlink="http://www.w3.org/1999/xlink" version="1.1"><path d="M0 157L21.5 157C43 157 86 157 128.8 157C171.7 157 214.3 157 257.2 156.8C300 156.7 343 156.3 385.8 156.7C428.7 157 471.3 158 514.2 158.8C557 159.7 600 160.3 642.8 159.3C685.7 158.3 728.3 155.7 771.2 155.5C814 155.3 857 157.7 878.5 158.8L900 160L900 201L878.5 201C857 201 814 201 771.2 201C728.3 201 685.7 201 642.8 201C600 201 557 201 514.2 201C471.3 201 428.7 201 385.8 201C343 201 300 201 257.2 201C214.3 201 171.7 201 128.8 201C86 201 43 201 21.5 201L0 201Z" fill="#add8e6"></path><path d="M0 162L21.5 161.5C43 161 86 160 128.8 159.8C171.7 159.7 214.3 160.3 257.2 161.8C300 163.3 343 165.7 385.8 166.3C428.7 167 471.3 166 514.2 166C557 166 600 167 642.8 167.3C685.7 167.7 728.3 167.3 771.2 166.7C814 166 857 165 878.5 164.5L900 164L900 201L878.5 201C857 201 814 201 771.2 201C728.3 201 685.7 201 642.8 201C600 201 557 201 514.2 201C471.3 201 428.7 201 385.8 201C343 201 300 201 257.2 201C214.3 201 171.7 201 128.8 201C86 201 43 201 21.5 201L0 201Z" fill="#a2c6d6"></path><path d="M0 167L21.5 166.7C43 166.3 86 165.7 128.8 167C171.7 168.3 214.3 171.7 257.2 172.3C300 173 343 171 385.8 169.8C428.7 168.7 471.3 168.3 514.2 168.7C557 169 600 170 642.8 170C685.7 170 728.3 169 771.2 169C814 169 857 170 878.5 170.5L900 171L900 201L878.5 201C857 201 814 201 771.2 201C728.3 201 685.7 201 642.8 201C600 201 557 201 514.2 201C471.3 201 428.7 201 385.8 201C343 201 300 201 257.2 201C214.3 201 171.7 201 128.8 201C86 201 43 201 21.5 201L0 201Z" fill="#96b4c5"></path><path d="M0 174L21.5 174.7C43 175.3 86 176.7 128.8 177.2C171.7 177.7 214.3 177.3 257.2 177.3C300 177.3 343 177.7 385.8 177.7C428.7 177.7 471.3 177.3 514.2 177C557 176.7 600 176.3 642.8 175.5C685.7 174.7 728.3 173.3 771.2 174.2C814 175 857 178 878.5 179.5L900 181L900 201L878.5 201C857 201 814 201 771.2 201C728.3 201 685.7 201 642.8 201C600 201 557 201 514.2 201C471.3 201 428.7 201 385.8 201C343 201 300 201 257.2 201C214.3 201 171.7 201 128.8 201C86 201 43 201 21.5 201L0 201Z" fill="#8ba2b3"></path><path d="M0 185L21.5 184.8C43 184.7 86 184.3 128.8 184.2C171.7 184 214.3 184 257.2 184C300 184 343 184 385.8 183.5C428.7 183 471.3 182 514.2 182.3C557 182.7 600 184.3 642.8 184.8C685.7 185.3 728.3 184.7 771.2 184.3C814 184 857 184 878.5 184L900 184L900 201L878.5 201C857 201 814 201 771.2 201C728.3 201 685.7 201 642.8 201C600 201 557 201 514.2 201C471.3 201 428.7 201 385.8 201C343 201 300 201 257.2 201C214.3 201 171.7 201 128.8 201C86 201 43 201 21.5 201L0 201Z" fill="#8091a2"></path><path d="M0 190L21.5 189.7C43 189.3 86 188.7 128.8 188.8C171.7 189 214.3 190 257.2 190.2C300 190.3 343 189.7 385.8 189.5C428.7 189.3 471.3 189.7 514.2 189.5C557 189.3 600 188.7 642.8 188.3C685.7 188 728.3 188 771.2 188.8C814 189.7 857 191.3 878.5 192.2L900 193L900 201L878.5 201C857 201 814 201 771.2 201C728.3 201 685.7 201 642.8 201C600 201 557 201 514.2 201C471.3 201 428.7 201 385.8 201C343 201 300 201 257.2 201C214.3 201 171.7 201 128.8 201C86 201 43 201 21.5 201L0 201Z" fill="#758190"></path></svg>